<svg width="600" height="600" viewBox="0 0 150 150" fill="none" xmlns="http://www.w3.org/2000/svg">
<path d="M7.98047 2V120.996L22.0898 120.992V80.2168L39.2642 56.5707L93.1336 120.983L47.9373 44.6512L77.0046 2.00454L46.5043 43.7269L22.0898 77.1328V2H7.98047Z" fill="#64ddff"/>
<path d="M10.5805 98.8816L15.8845 98.8816L10.5805 95.0056L10.6645 94.9096L13.5925 97.0576L18.9805 93.8656L18.9805 94.9816L14.4325 97.6696L16.1005 98.8816L18.9805 98.8816L18.9805 99.8776L10.5805 99.8776L10.5805 98.8816ZM18.9805 92.0318L18.9805 93.0278L10.5805 93.0278L10.5805 92.0318L14.4445 92.0318L14.4445 88.1318L10.5805 88.1318L10.5805 87.1358L18.9805 87.1358L18.9805 88.1318L14.5645 88.1318L14.5645 92.0318L18.9805 92.0318ZM18.9805 86.1511L18.9805 86.2951L10.5805 82.7071L10.5205 82.5751L18.9805 79.5511L18.9805 80.5711L16.3405 81.5071L16.3405 85.0111L18.9805 86.1511ZM11.8765 83.0791L16.2205 84.9631L16.2205 81.5431L11.8765 83.0791ZM18.9805 73.9075L18.9805 78.4675L10.5805 78.4675L10.5805 77.4715L18.8605 77.4715L18.8605 73.9075L18.9805 73.9075ZM10.5805 67.9258L10.7005 67.9258L10.7005 71.7058L14.3005 71.7058L14.3005 68.2018L14.4205 68.2018L14.4205 71.7058L18.8605 71.7058L18.8605 67.6618L18.9805 67.6618L18.9805 72.7018L10.5805 72.7018L10.5805 67.9258ZM10.5805 61.6212L10.7005 61.6212L10.7005 65.4012L14.3005 65.4012L14.3005 61.8972L14.4205 61.8972L14.4205 65.4012L18.8605 65.4012L18.8605 61.3572L18.9805 61.3572L18.9805 66.3972L10.5805 66.3972L10.5805 61.6212ZM18.9805 55.5325L18.9805 60.0925L10.5805 60.0925L10.5805 59.0965L18.8605 59.0965L18.8605 55.5325L18.9805 55.5325ZM10.7005 51.0409L10.5805 51.0409L10.5805 48.9049L17.3965 48.9049C18.0285 48.9049 18.4525 49.0329 18.6685 49.2889C18.8765 49.5449 18.9805 49.9329 18.9805 50.4529C18.9805 50.9649 18.9045 51.4209 18.7525 51.8209L18.6565 51.7849C18.8085 51.4009 18.8845 51.0049 18.8845 50.5969C18.8845 50.3249 18.7685 50.1449 18.5365 50.0569C18.3045 49.9609 17.9285 49.9129 17.4085 49.9129L10.7005 49.9129L10.7005 51.0409ZM18.9805 47.7957L18.9805 47.9397L10.5805 44.3517L10.5205 44.2197L18.9805 41.1957L18.9805 42.2157L16.3405 43.1517L16.3405 46.6557L18.9805 47.7957ZM11.8765 44.7237L16.2205 46.6077L16.2205 43.1877L11.8765 44.7237ZM10.6765 40.112C10.6125 39.184 10.5805 38.364 10.5805 37.652C10.5805 35.676 11.2405 34.688 12.5605 34.688C13.0565 34.688 13.4845 34.832 13.8445 35.12C14.1965 35.408 14.4365 35.868 14.5645 36.5C14.6365 35.892 14.8205 35.412 15.1165 35.06C15.4125 34.708 15.9285 34.532 16.6645 34.532C18.2085 34.532 18.9805 35.52 18.9805 37.496L18.9805 40.112L10.6765 40.112ZM18.8605 39.116L18.8605 37.496C18.8605 36.784 18.6765 36.28 18.3085 35.984C17.9325 35.68 17.3605 35.528 16.5925 35.528C15.8245 35.528 15.3125 35.68 15.0565 35.984C14.8005 36.288 14.6645 36.74 14.6485 37.34L14.6485 39.116L18.8605 39.116ZM10.7005 37.652C10.7005 38.116 10.7285 38.604 10.7845 39.116L14.5285 39.116L14.5285 37.34C14.4805 36.212 13.8325 35.648 12.5845 35.648C11.9765 35.648 11.5125 35.816 11.1925 36.152C10.8645 36.488 10.7005 36.988 10.7005 37.652ZM10.5805 28.4923L10.7005 28.4923L10.7005 32.2723L14.3005 32.2723L14.3005 28.7683L14.4205 28.7683L14.4205 32.2723L18.8605 32.2723L18.8605 28.2283L18.9805 28.2283L18.9805 33.2683L10.5805 33.2683L10.5805 28.4923ZM10.6765 26.9636C10.6125 26.0356 10.5805 25.2156 10.5805 24.5036C10.5805 22.5276 11.2405 21.5396 12.5605 21.5396C13.1205 21.5396 13.6205 21.6756 14.0605 21.9476C14.5005 22.2196 14.7925 22.6876 14.9365 23.3516L18.9805 20.9516L18.9805 22.0676L15.0085 24.4196L15.0085 25.9676L18.9805 25.9676L18.9805 26.9636L10.6765 26.9636ZM10.7005 24.5036C10.7005 24.9676 10.7285 25.4556 10.7845 25.9676L14.8885 25.9676L14.8885 24.1916C14.8405 23.0636 14.0725 22.4996 12.5845 22.4996C11.9765 22.4996 11.5125 22.6676 11.1925 23.0036C10.8645 23.3396 10.7005 23.8396 10.7005 24.5036Z" fill="white"/>
</svg>
